<svg xmlns="http://www.w3.org/2000/svg" width="61.613" height="75.667" viewBox="0 0 46.21 56.75"><path d="M31.453 9.059C33.433 6.66 34.77 3.32 34.403 0c-2.856.113-6.31 1.902-8.36 4.3-1.836 2.122-3.445 5.52-3.008 8.778 3.184.246 6.434-1.617 8.418-4.02m7.14 21.09c.079 8.59 7.536 11.446 7.618 11.48-.063.204-1.191 4.079-3.93 8.075-2.363 3.457-4.82 6.902-8.687 6.973-3.797.07-5.02-2.254-9.364-2.254-4.343 0-5.703 2.183-9.3 2.324-3.73.145-6.575-3.738-8.957-7.184-4.875-7.046-8.602-19.91-3.598-28.593 2.48-4.313 6.922-7.043 11.742-7.114 3.664-.07 7.125 2.465 9.363 2.465 2.243 0 6.446-3.047 10.868-2.601 1.851.078 7.043.75 10.379 5.629-.27.172-6.196 3.62-6.133 10.8" fill="#fff"/></svg>