<svg xmlns="http://www.w3.org/2000/svg" width="74" height="23" viewBox="0 0 74.43 22.86"><defs><clipPath id="a"><path d="M0 0h17v22.86H0zm0 0"/></clipPath><clipPath id="b"><path d="M21 0h4v22.86h-4zm0 0"/></clipPath><clipPath id="c"><path d="M30 0h20v22.86H30zm0 0"/></clipPath><clipPath id="d"><path d="M56 0h18.43v22.86H56zm0 0"/></clipPath></defs><g clip-path="url(#a)"><path d="M8.113 12.43c3.735 0 6.184-1.996 6.184-4.961v-.063c0-3.222-2.414-4.894-6.055-4.894H2.543v9.918zM0 1.45C0 .741.582.16 1.258.16h7.18c5.085 0 8.433 2.707 8.433 7.149v.062c0 4.863-4.055 7.375-8.851 7.375H2.543v6.824c0 .707-.578 1.29-1.285 1.29C.582 22.86 0 22.28 0 21.57" fill="#fff"/></g><g clip-path="url(#b)"><path d="M21.73 1.29c0-.712.579-1.29 1.254-1.29a1.29 1.29 0 011.286 1.29v20.28c0 .707-.579 1.29-1.286 1.29-.675 0-1.257-.583-1.257-1.29V1.29" fill="#fff"/></g><g clip-path="url(#c)"><path d="M30.871 1.32A1.28 1.28 0 0132.125.062h.355c.579 0 .934.293 1.29.743l13.683 17.449V1.258c0-.68.543-1.258 1.254-1.258.676 0 1.223.578 1.223 1.258v20.347c0 .676-.48 1.192-1.16 1.192h-.13c-.542 0-.93-.324-1.316-.774L33.348 4.153v17.449c0 .675-.547 1.257-1.254 1.257-.676 0-1.223-.582-1.223-1.257" fill="#fff"/></g><g clip-path="url(#d)"><path d="M56.3 1.29C56.3.577 56.88 0 57.556 0c.71 0 1.289.578 1.289 1.29v12.327L71.69.45c.29-.258.579-.449.996-.449.676 0 1.223.613 1.223 1.254 0 .355-.16.644-.418.902l-7.984 7.922 8.566 10.559c.223.293.352.547.352.933 0 .676-.578 1.29-1.285 1.29-.485 0-.805-.258-1.032-.579l-8.402-10.465-4.863 4.864v4.89c0 .711-.578 1.29-1.285 1.29-.676 0-1.258-.579-1.258-1.29V1.29" fill="#fff"/></g></svg>